<svg xmlns="http://www.w3.org/2000/svg" viewBox="0 0 24 24"><title>Route Optimizer</title><rect width="24" height="24" rx="5.5" fill="#0f172a"/><g transform="translate(12 12) scale(0.8) translate(-12 -12)"><circle cx="3.5" cy="3.5" r="0.95" fill="#475569"/><circle cx="3.5" cy="9" r="0.95" fill="#475569"/><circle cx="3.5" cy="14.5" r="0.95" fill="#475569"/><circle cx="3.5" cy="20" r="0.95" fill="#475569"/><circle cx="9" cy="3.5" r="0.95" fill="#475569"/><circle cx="9" cy="9" r="0.95" fill="#475569"/><circle cx="9" cy="14.5" r="0.95" fill="#475569"/><circle cx="9" cy="20" r="0.95" fill="#475569"/><circle cx="14.5" cy="3.5" r="0.95" fill="#475569"/><circle cx="14.5" cy="9" r="0.95" fill="#475569"/><circle cx="14.5" cy="14.5" r="0.95" fill="#475569"/><circle cx="14.5" cy="20" r="0.95" fill="#475569"/><circle cx="20" cy="3.5" r="0.95" fill="#475569"/><circle cx="20" cy="9" r="0.95" fill="#475569"/><circle cx="20" cy="14.5" r="0.95" fill="#475569"/><circle cx="20" cy="20" r="0.95" fill="#475569"/><path d="M3.5 20 H9 V14.5 H14.5 V9 H20 V3.5" fill="none" stroke="#34d399" stroke-width="3" stroke-linejoin="round" stroke-linecap="round"/><rect x="1.2" y="17.7" width="4.6" height="4.6" rx="1" fill="#e8eef8"/><circle cx="20" cy="3.5" r="2.1" fill="#e8eef8"/></g></svg>
